<svg width="24" height="24" viewBox="0 0 24 24" fill="none" xmlns="http://www.w3.org/2000/svg">
<path d="M17.9963 21.8249C16.8328 22.9528 15.5625 22.8697 14.3396 22.3117C13.0455 21.7655 11.8583 21.7418 10.4929 22.3117C8.78331 23.0478 7.88101 22.8341 6.85998 21.8249C1.06624 15.8531 1.92106 6.7588 8.49838 6.42637C10.1012 6.50948 11.2172 7.30493 12.1551 7.37616C13.556 7.3168 14.8976 6.48573 16.3935 6.37888C18.1863 6.23641 19.5397 7.23369 20.4302 8.51592C16.726 10.7361 17.6045 15.6156 21 16.981C20.2283 18.7381 19.2667 20.4833 17.9963 21.8249ZM12.0364 6.35514C11.8583 3.70759 14.0072 1.52306 16.4766 1.30936C16.8209 4.37244 13.6985 6.65195 12.0364 6.35514Z" fill="black"/>
</svg>
