<svg width="24" height="24" viewBox="0 0 24 24" fill="none" xmlns="http://www.w3.org/2000/svg">
<path fill-rule="evenodd" clip-rule="evenodd" d="M12.2224 12.3571V11.4748L11.1993 12.5019L8.9153 10.2179L6.27917 12.8569V13.7425L6.94294 13.0763L8.78205 14.9195L8.10346 15.5975L8.54459 16.0423L12.2224 12.3571Z" fill="black"/>
<path fill-rule="evenodd" clip-rule="evenodd" d="M0.528687 13.6659H1.2112V10.6148H0.528687V9.73621H4.60026V10.6148H3.92167V13.4548L6.27976 12.1425V14.5484H0.528687V13.6659Z" fill="black"/>
<path fill-rule="evenodd" clip-rule="evenodd" d="M8.57792 7C9.37906 7 10.0278 7.64503 10.0278 8.44575C10.0278 9.24688 9.37906 9.89562 8.57792 9.89562C7.77679 9.89562 7.12805 9.24688 7.12805 8.44575C7.12805 7.64503 7.7772 7 8.57792 7Z" fill="black"/>
<path fill-rule="evenodd" clip-rule="evenodd" d="M11.5441 9.73602V10.615H12.2227V13.6661H11.5441V14.5486H15.4262C18.2954 14.5486 18.3251 9.73623 15.4262 9.73623L11.5441 9.73602ZM14.6879 11.23H14.8506C15.6999 11.23 15.7003 13.0505 14.881 13.0468H14.6879V11.23Z" fill="black"/>
<path fill-rule="evenodd" clip-rule="evenodd" d="M17.6964 13.6659H18.3789V10.6148H17.6964V9.73621H21.768V10.6148H21.0894V13.4548L23.4475 12.1425V14.5484H17.6964V13.6659Z" fill="black"/>
</svg>
