<svg width="24" height="24" viewBox="0 0 24 24" fill="none" xmlns="http://www.w3.org/2000/svg">
<path fill-rule="evenodd" clip-rule="evenodd" d="M11.575 22.334C5.73394 22.3336 0.998978 17.6501 1 11.8734C1.00061 6.09695 5.7368 1.41474 11.5779 1.41556C17.4192 1.41638 22.1538 6.09981 22.153 11.8763C22.1521 17.653 17.4164 22.3352 11.575 22.334Z" fill="black"/>
<path fill-rule="evenodd" clip-rule="evenodd" d="M2.90302 16.893L3.08888 16.7456C2.54235 15.7441 2.06104 14.2409 2.03405 14.2094C2.02178 14.252 2.2424 15.6483 2.90302 16.893Z" fill="black"/>
<path fill-rule="evenodd" clip-rule="evenodd" d="M11.7227 2.45484L13.1597 10.8184L11.6589 11.6998L11.607 2.45831C11.607 2.34729 11.5285 2.34831 11.517 2.45831L10.665 11.2247L10.0344 10.8585L11.3872 2.45688C6.14923 2.48959 2.01294 6.6952 2.01233 11.8929C2.01212 13.5345 2.5286 15.2563 3.27182 16.6016L9.87108 11.112L10.5037 11.4743L3.09128 16.803C2.9134 16.9267 2.96676 16.9887 3.16366 16.8793L11.4381 12.1006L11.4379 13.8214L3.4493 16.8687C5.12017 19.6021 8.08693 21.3421 11.5475 21.3425C15.0031 21.3429 18.0181 19.5987 19.6915 16.8724L11.7135 13.8271V12.1059L19.6712 16.6957C19.8518 16.7975 19.9063 16.7421 19.7358 16.6203L12.6479 11.4786L13.2801 11.1161L19.8769 16.6108C20.632 15.2579 21.1325 13.531 21.1329 11.8753C21.1335 6.74488 16.8666 2.59489 11.7227 2.45484Z" fill="white"/>
<path fill-rule="evenodd" clip-rule="evenodd" d="M21.6992 10.0541C21.2987 7.80748 20.1465 6.14765 20.1465 6.14765C18.3191 3.43728 15.2047 1.66847 11.5965 1.66806C5.8703 1.66724 1.24105 6.30897 1.24023 12.0356C1.24003 13.3842 1.58414 14.6725 2.05236 15.8547C2.26746 16.3974 3.18018 17.9626 3.22148 17.9961C3.21719 17.9466 2.57313 16.6943 2.23434 15.8613C1.944 15.1471 1.58251 13.7236 1.58271 12.0728C1.58332 6.51752 6.08744 2.01463 11.6423 2.01544C14.5451 2.01585 17.2722 3.43299 18.9457 5.27009C19.3023 5.66143 19.6106 6.01658 19.8867 6.37767C19.8867 6.37746 20.6144 7.05853 21.6992 10.0541Z" fill="white"/>
<path fill-rule="evenodd" clip-rule="evenodd" d="M21.3752 11.8485C21.3752 13.568 20.8364 15.3499 20.0421 16.7478C20.0865 16.8631 20.045 16.9224 19.9102 16.9566C18.1794 19.7453 15.0886 21.5701 11.5698 21.5697C8.2685 21.5693 5.62765 19.7958 4.79283 18.8794C4.11523 18.1357 3.61307 17.5796 3.22521 16.9482L2.99805 17.0357C4.48327 19.8759 7.59908 21.94 11.5732 21.9404C17.2136 21.9412 21.7171 17.3802 21.7175 11.8751C21.7175 11.8751 21.8923 10.1056 20.3562 7.58746C20.3562 7.58746 21.4271 9.53722 21.3752 11.8485Z" fill="white"/>
<path fill-rule="evenodd" clip-rule="evenodd" d="M10.9171 11.7199L9.50953 12.8692C9.50953 12.8692 9.21244 13.1145 9.63875 12.8949L11.3432 11.9652L10.9171 11.7199ZM11.059 11.4359L11.4722 5.16028C11.4722 5.16028 11.5108 4.39845 11.5497 5.17316C11.5877 5.93458 11.4722 11.707 11.4722 11.707L11.059 11.4359ZM11.8079 11.9652L12.26 11.707L17.6057 15.2841C17.6057 15.2841 18.0062 15.5552 17.5541 15.3227L11.8079 11.9652Z" fill="black"/>
</svg>
