<svg width="24" height="24" viewBox="0 0 24 24" fill="none" xmlns="http://www.w3.org/2000/svg">
<path fill-rule="evenodd" clip-rule="evenodd" d="M5.32171 8.89958C4.09143 10.3444 2.91183 12.1361 2.9 13.4753C2.89539 13.9792 3.05626 14.4191 3.44211 14.7523C3.99743 15.2321 4.60927 15.4014 5.21812 15.4023C6.10787 15.4036 6.99139 15.0446 7.68316 14.7678C8.8482 14.3019 21.7266 8.70933 21.7266 8.70933C21.8509 8.64707 21.8276 8.5695 21.6721 8.60822C21.6093 8.62391 7.65191 12.4064 7.65191 12.4064C7.38753 12.4812 7.11435 12.5203 6.83961 12.5227C5.76696 12.529 4.81247 11.9336 4.82019 10.6789C4.82318 10.188 4.97346 9.59596 5.32171 8.89958Z" fill="black"/>
</svg>
