<svg width="24" height="24" viewBox="0 0 24 24" fill="none" xmlns="http://www.w3.org/2000/svg">
<g clip-path="url(#clip0_1_64)">
<path d="M8.01061 14.029H5.94544C5.87594 14.029 5.8243 13.9754 5.8243 13.904V13.6458C5.82234 13.5822 5.84216 13.5545 5.8818 13.5049L7.52606 11.5488H5.91557C5.84607 11.5488 5.79443 11.4952 5.79443 11.4238V11.2409C5.79443 11.1714 5.84607 11.1159 5.91557 11.1159H8.00056C8.07006 11.1159 8.1217 11.1695 8.1217 11.2409V11.505C8.1217 11.5527 8.10579 11.5924 8.07006 11.6362L6.42384 13.5981H8.01256C8.08206 13.5981 8.1337 13.6517 8.1337 13.7231V13.9059C8.13174 13.9754 8.08011 14.029 8.01061 14.029ZM12.0795 14.0826C12.2286 14.0807 12.3377 14.0488 12.3793 14.0011C12.3933 13.9833 12.4011 13.9634 12.3991 13.9436C12.3972 13.9277 12.3972 13.9277 12.3575 13.7332L12.3556 13.7293C12.3478 13.6776 12.3118 13.6559 12.2822 13.6559H12.2783C12.2783 13.6559 12.2406 13.6539 12.2049 13.6539C12.0996 13.65 12.0123 13.6341 12.0103 13.4772V10.1666C12.0103 10.1111 11.9785 10.0555 11.9152 10.0533H11.8973L11.6092 10.1287C11.5596 10.1345 11.5099 10.1703 11.5118 10.2359V13.4845C11.5135 13.8702 11.7142 14.0826 12.0795 14.0826ZM17.9097 14.029H17.6515C17.582 14.029 17.5304 13.9754 17.5304 13.904V11.9142C17.5265 11.5767 17.4271 11.4832 17.0738 11.4793C16.6746 11.4793 16.2696 11.5826 16.1345 11.6203V13.9059C16.1345 13.9774 16.0868 14.031 16.0193 14.031H15.7572C15.6877 14.031 15.636 13.9774 15.636 13.9059V11.6719C15.6321 11.4654 15.6519 11.3225 15.9378 11.227C16.2119 11.1296 16.738 11.0484 17.0855 11.0484C17.7467 11.0484 18.0308 11.2945 18.0308 11.8664V13.9059C18.0289 13.9754 17.9773 14.029 17.9097 14.029ZM20.4932 11.5608C20.398 11.5351 20.1298 11.4735 19.8281 11.4735C19.274 11.4793 19.0418 11.6323 19.0357 12.5776C19.0415 13.6143 19.3435 13.6698 19.8339 13.6757V13.6974V13.6737C20.1398 13.6737 20.4019 13.6081 20.4952 13.5824V11.5608H20.4932ZM20.6302 13.9914L20.6004 13.9992C20.4377 14.0408 20.2132 14.1005 19.82 14.1005H19.818C18.7359 14.0985 18.5213 13.5386 18.5213 12.5715C18.5232 11.4634 18.8648 11.0503 19.7862 11.0484C20.1119 11.0484 20.3344 11.0922 20.4952 11.1318L20.4932 10.2381C20.4912 10.1985 20.5091 10.1468 20.6004 10.1309L20.8884 10.0555H20.9043C20.9699 10.0575 20.9937 10.1172 20.9937 10.1689V13.5249C20.9976 13.7351 20.9738 13.9157 20.6302 13.9914ZM22.7292 13.6676C22.0202 13.6637 21.9845 13.2902 21.9786 12.5754C21.9845 11.8567 22.0183 11.4813 22.7292 11.4774C23.4381 11.4813 23.4758 11.8567 23.4797 12.5754C23.4739 13.2902 23.4381 13.6656 22.7292 13.6676ZM22.7292 11.0464C21.5597 11.0484 21.4603 11.8369 21.4584 12.5754C21.4584 13.312 21.5577 14.0966 22.7292 14.0985C23.8987 14.0966 23.998 13.3142 24 12.5754C23.998 11.8031 23.899 11.0484 22.7292 11.0464ZM14.6173 12.5913C14.5 12.5933 13.932 12.6014 13.7057 12.6508L13.6878 12.6547C13.4335 12.7122 13.2331 12.7599 13.2292 13.1451C13.2292 13.6316 13.5926 13.6754 13.9639 13.6773C14.1961 13.6773 14.4166 13.6436 14.6173 13.576V12.5913ZM15.1197 11.8824V13.4273C15.1255 13.8105 15.0284 13.9336 14.651 14.0229C14.4861 14.0586 14.2321 14.0983 13.958 14.1002C13.555 14.0983 12.7148 14.0983 12.7129 13.1688C12.7109 12.4381 13.138 12.3088 13.656 12.2296C13.9957 12.174 14.3412 12.1659 14.5159 12.1659H14.6114V11.9019C14.6094 11.7272 14.6094 11.6219 14.4506 11.5603C14.3532 11.5187 14.2064 11.4986 13.9898 11.4986C13.6323 11.4986 13.3107 11.5801 13.0983 11.6356L13.0168 11.6554C13.009 11.6574 12.999 11.6593 12.987 11.6613C12.9493 11.6613 12.9074 11.6376 12.8937 11.5879L12.8918 11.584L12.844 11.3358V11.3219C12.844 11.2644 12.8856 11.2287 12.9255 11.2167C13.0964 11.1511 13.5491 11.0478 14.0375 11.0478C14.3931 11.0478 14.651 11.0955 14.8238 11.1927C15.1216 11.3523 15.1197 11.6462 15.1197 11.8824ZM10.4174 13.5783C10.2167 13.6458 9.99651 13.6796 9.76401 13.6796C9.39279 13.6757 9.02938 13.6338 9.02938 13.1473C9.03133 12.7602 9.23202 12.7144 9.48797 12.6569L9.50583 12.653C9.73219 12.6033 10.3002 12.5935 10.4174 12.5935V13.5783ZM10.624 11.1932C10.4512 11.0958 10.193 11.0484 9.8377 11.0484C9.34925 11.0484 8.89847 11.1516 8.7257 11.2172C8.68802 11.2292 8.64615 11.265 8.6442 11.3225V11.3345L8.69165 11.5826L8.6936 11.5884C8.70951 11.6381 8.74915 11.6619 8.78683 11.6619C8.79883 11.6619 8.8086 11.6599 8.81669 11.656L8.89819 11.6362C9.1106 11.5826 9.43242 11.4991 9.78969 11.4991C10.006 11.4991 10.1531 11.5189 10.2525 11.5608C10.4113 11.6225 10.4113 11.7277 10.4132 11.9025V12.1626H10.3158C10.1411 12.1626 9.79555 12.1704 9.45587 12.2262C8.93755 12.3077 8.50855 12.4347 8.51274 13.1674C8.51274 14.0969 9.35259 14.0988 9.75787 14.0988C10.032 14.0988 10.284 14.0572 10.4509 14.0215C10.8283 13.9322 10.9235 13.8091 10.9195 13.4259V11.8824C10.9179 11.6462 10.9179 11.3523 10.624 11.1932Z" fill="black"/>
<path d="M4.36871 11.9022C4.02903 11.4751 3.55649 11.0623 2.9349 10.6889L2.93294 10.6869C2.3094 10.3216 1.72158 10.1092 1.19154 10.0218C0.861908 9.96625 0.703091 10.0296 0.631638 10.0734C0.560184 10.115 0.427046 10.2244 0.307864 10.544C0.117228 11.0584 0.00586142 11.6859 0 12.4225V12.4244C0.00390761 13.161 0.117228 13.7907 0.307864 14.3048C0.427046 14.6266 0.560184 14.7338 0.631638 14.7774C0.703091 14.8189 0.861908 14.8845 1.19154 14.829C1.72186 14.7416 2.30745 14.5273 2.93294 14.1619L2.9349 14.16C3.55649 13.7865 4.02903 13.3737 4.36871 12.9466C4.57916 12.6806 4.60512 12.5079 4.60512 12.4244C4.60512 12.341 4.58112 12.1685 4.36871 11.9022Z" fill="black"/>
</g>
<defs>
<clipPath id="clip0_1_64">
<rect width="24" height="4.85074" fill="white" transform="translate(0 10)"/>
</clipPath>
</defs>
</svg>
