<svg width="24" height="24" viewBox="0 0 24 24" fill="none" xmlns="http://www.w3.org/2000/svg">
<g clip-path="url(#clip0_1_4)">
<path d="M19.1111 12C19.1111 15.9299 15.93 19.1111 12 19.1111V12H19.1111ZM12 4.88889V12H4.88892C4.88892 8.07006 8.07009 4.88889 12 4.88889Z" fill="black"/>
<path d="M12 4.88889V5.27878C15.7057 5.27878 18.7212 8.29356 18.7212 12H19.1111C19.1111 8.07288 15.9271 4.88889 12 4.88889ZM12 18.7212C8.29427 18.7212 5.27878 15.7064 5.27878 12H4.88889C4.88889 15.9271 8.07288 19.1111 12 19.1111M12 0C5.37277 0 0 5.37277 0 12C0 18.6272 5.37277 24 12 24C18.6272 24 24 18.6272 24 12C24 5.37277 18.6272 0 12 0ZM23.2197 12C23.2197 18.1961 18.1968 23.2197 12 23.2197C5.80315 23.2197 0.780339 18.1961 0.780339 12C0.780339 5.80386 5.80386 0.780339 12 0.780339C18.1961 0.780339 23.2197 5.80386 23.2197 12Z" fill="black"/>
<path d="M6.87183 6.21095C7.2553 5.80983 7.47241 5.3464 7.08894 4.90398C6.88029 4.66386 6.52996 4.61136 6.23954 4.72966L6.21064 4.74087L6.2198 4.71566C6.2628 4.60156 6.29029 4.23754 5.97802 3.98622C5.82576 3.86371 5.63474 3.81821 5.44159 3.83781C5.08139 3.87422 4.80437 4.11853 4.05012 4.95368C3.82244 5.20569 3.49114 5.60332 3.29236 5.86093L5.36405 7.81264C6.05063 7.058 6.33047 6.77728 6.87183 6.21095ZM4.16855 5.73352C4.58585 5.22669 5.02923 4.76677 5.23012 4.58476C5.29357 4.52735 5.36264 4.46995 5.44653 4.44755C5.58257 4.41045 5.72285 4.50635 5.75457 4.64496C5.78629 4.78427 5.69818 4.91658 5.6002 5.02578C5.37956 5.2729 4.57034 6.11365 4.57034 6.11365L4.16855 5.73352ZM4.97989 6.49797C4.97989 6.49797 5.76796 5.67052 6.02525 5.4059C6.12746 5.3009 6.19302 5.23719 6.26351 5.20289C6.35444 5.15879 6.45383 5.14969 6.54265 5.20849C6.63005 5.2666 6.67023 5.3667 6.64838 5.46611C6.6223 5.58441 6.52502 5.69712 6.44466 5.78323C6.33611 5.89873 5.40141 6.89209 5.4 6.89349L4.97989 6.49797ZM12.2368 3.88332L12.9001 2.40763L12.9424 2.27672L12.9304 2.41323L13.0002 4.38524C13.2328 4.40695 13.4732 4.43915 13.7101 4.47835L13.6022 1.55778C13.2709 1.52138 12.941 1.49548 12.6111 1.48148L11.9577 3.09227L11.9344 3.21198L11.9112 3.09227L11.2584 1.48148C10.9285 1.49548 10.5986 1.52138 10.2673 1.55778L10.1595 4.47835C10.3963 4.43915 10.6367 4.40765 10.8693 4.38524L10.9391 2.41323L10.9271 2.27672L10.9694 2.40763L11.6327 3.88332H12.2368ZM17.7456 6.93619C17.9084 7.1098 18.1432 7.38982 18.275 7.55993L20.7026 6.02964C20.5814 5.87213 20.3883 5.63272 20.2438 5.46401L18.7064 6.47347L18.6013 6.56307L18.6796 6.44967L19.3584 5.10419L18.8784 4.62746L17.5228 5.3016L17.4087 5.3793L17.4996 5.275L18.5168 3.74891C18.3377 3.5977 18.1657 3.45909 17.9465 3.29108L16.4056 5.69992C16.6008 5.84903 16.8581 6.06814 17.0224 6.21725L18.4731 5.46961L18.5661 5.4017L18.4977 5.49411L17.7456 6.93619Z" fill="black"/>
</g>
<defs>
<clipPath id="clip0_1_4">
<rect width="24" height="24" fill="white"/>
</clipPath>
</defs>
</svg>
